<svg width="158" height="38" viewBox="0 0 158 38" fill="none" xmlns="http://www.w3.org/2000/svg">
<path d="M144.065 18.2235H141.285L142.234 14.6069H144.065V9.40625L148.267 9.43265V14.6069H151.06L150.124 18.2235H148.267V22.6982C148.267 23.8949 149.013 24.4933 150.506 24.4933C150.989 24.4933 151.358 24.4361 151.613 24.3217L150.401 28.5192C150.181 28.5544 149.966 28.572 149.755 28.572C148.5 28.572 147.455 28.3696 146.62 27.9648C145.777 27.56 145.141 26.9484 144.71 26.13C144.28 25.3205 144.065 24.2865 144.065 23.0282V18.2235Z" fill="white"/>
<path d="M139.263 14.6337V28.1632H135.06V14.6469L139.263 14.6337ZM139.276 10.8059C139.276 11.2283 139.179 11.6023 138.986 11.9278C138.793 12.2534 138.529 12.5174 138.196 12.7198C137.862 12.9222 137.493 13.0234 137.089 13.0234C136.685 13.0234 136.321 12.9266 135.996 12.733C135.662 12.5306 135.399 12.2622 135.205 11.9278C135.003 11.5759 134.902 11.2019 134.902 10.8059C134.902 10.4011 134.999 10.0315 135.192 9.69712C135.403 9.35394 135.671 9.08554 135.996 8.89195C136.321 8.69836 136.685 8.60156 137.089 8.60156C137.493 8.60156 137.862 8.69836 138.196 8.89195C138.521 9.08554 138.784 9.35394 138.986 9.69712C139.179 10.0315 139.276 10.4011 139.276 10.8059Z" fill="white"/>
<path d="M130.564 18.6994C130.186 18.3826 129.774 18.1451 129.326 17.9867C128.86 17.8283 128.369 17.7491 127.85 17.7491C126.884 17.7491 126.068 18.0615 125.4 18.6862C124.724 19.311 124.386 20.0854 124.386 21.0094C124.386 21.7309 124.531 22.3777 124.821 22.9497C125.102 23.5217 125.519 23.9748 126.072 24.3092C126.608 24.6524 127.227 24.824 127.929 24.824C128.966 24.824 129.853 24.494 130.59 23.834L132.896 26.7643C132.562 27.1163 132.097 27.4287 131.499 27.7015C130.893 27.9743 130.27 28.1767 129.629 28.3087C128.988 28.4407 128.395 28.5067 127.85 28.5067C126.322 28.5067 124.974 28.1855 123.806 27.5431C122.638 26.8919 121.742 26.0384 121.119 24.9824C120.495 23.9088 120.184 22.7605 120.184 21.5373C120.184 20.4198 120.372 19.4078 120.75 18.5014C121.136 17.5775 121.668 16.7855 122.344 16.1255C123.011 15.4832 123.824 14.9772 124.781 14.6076C125.729 14.2468 126.753 14.0664 127.85 14.0664C128.746 14.0664 129.62 14.2072 130.472 14.4888C131.332 14.7792 132.092 15.1884 132.751 15.7163L130.564 18.6994Z" fill="white"/>
<path d="M107.412 19.5979C107.737 19.0788 108.172 18.6652 108.716 18.3572C109.261 18.058 109.836 17.9084 110.442 17.9084C111.066 17.9084 111.645 18.058 112.181 18.3572C112.725 18.6652 113.16 19.0788 113.485 19.5979C113.81 20.1171 113.973 20.6847 113.973 21.3007C113.973 22.2335 113.621 23.0386 112.919 23.7162C112.225 24.385 111.399 24.7194 110.442 24.7194C109.494 24.7194 108.673 24.385 107.979 23.7162C107.276 23.0386 106.925 22.2335 106.925 21.3007C106.925 20.6847 107.087 20.1171 107.412 19.5979ZM113.986 28.138L118.162 28.1776L118.175 21.3007C118.175 20.2711 117.968 19.312 117.556 18.4232C117.152 17.5608 116.581 16.7953 115.843 16.1265C115.141 15.4753 114.315 14.9737 113.367 14.6217C112.418 14.2697 111.443 14.0938 110.442 14.0938C109.432 14.0938 108.457 14.2741 107.518 14.6349C106.578 14.9781 105.752 15.4753 105.041 16.1265C104.321 16.7777 103.755 17.5432 103.342 18.4232C102.929 19.312 102.723 20.2711 102.723 21.3007C102.723 22.6646 103.078 23.901 103.79 25.0098C104.492 26.1009 105.441 26.9633 106.635 27.5969C107.829 28.2216 109.098 28.534 110.442 28.534C111.461 28.534 112.436 28.3536 113.367 27.9928C113.498 27.9488 113.705 27.8652 113.986 27.7421V28.138Z" fill="white"/>
<path d="M100.712 14.6328L93.6118 28.6903L86.7617 14.6592L91.043 14.6328L93.6645 20.6254L96.2464 14.6328H100.712Z" fill="white"/>
<path d="M84.7392 14.6337V28.1632H80.537V14.6469L84.7392 14.6337ZM84.7524 10.8059C84.7524 11.2283 84.6558 11.6023 84.4626 11.9278C84.2694 12.2534 84.0059 12.5174 83.6722 12.7198C83.3385 12.9222 82.9696 13.0234 82.5656 13.0234C82.1617 13.0234 81.7972 12.9266 81.4723 12.733C81.1386 12.5306 80.8751 12.2622 80.6819 11.9278C80.4799 11.5759 80.3789 11.2019 80.3789 10.8059C80.3789 10.4011 80.4755 10.0315 80.6687 9.69712C80.8795 9.35394 81.1473 9.08554 81.4723 8.89195C81.7972 8.69836 82.1617 8.60156 82.5656 8.60156C82.9696 8.60156 83.3385 8.69836 83.6722 8.89195C83.9971 9.08554 84.2606 9.35394 84.4626 9.69712C84.6558 10.0315 84.7524 10.4011 84.7524 10.8059Z" fill="white"/>
<path d="M72.5479 17.9084C73.6194 17.9524 74.1551 18.7004 74.1551 20.1523V28.138H78.3705V20.1523C78.3705 16.3069 76.4296 14.2873 72.5479 14.0938H72.3108C68.4291 14.2873 66.4883 16.3069 66.4883 20.1523V28.138H70.7037V20.1523C70.7037 18.7004 71.2394 17.9524 72.3108 17.9084H72.5479Z" fill="white"/>
<path d="M64.481 9.41945V21.6422C64.481 23.059 64.1385 24.2909 63.4535 25.3381C62.7685 26.394 61.8244 27.1948 60.6213 27.7404C59.4093 28.2948 58.0218 28.572 56.4585 28.572C54.9919 28.572 53.7097 28.3344 52.612 27.8592C51.5054 27.384 50.6492 26.6536 50.0432 25.6681C49.4285 24.6825 49.1211 23.4505 49.1211 21.9722V9.40625L53.7185 9.41945V20.6522C53.7185 21.3826 53.802 22.0118 53.9688 22.5398C54.1445 23.0942 54.443 23.5253 54.8646 23.8333C55.2773 24.1589 55.8482 24.3217 56.5771 24.3217C57.9383 24.3217 58.8341 23.9213 59.2644 23.1206C59.686 22.311 59.8967 21.1538 59.8967 19.6491V9.41945H64.481Z" fill="white"/>
<path d="M157.985 14.6337V28.1632H153.783V14.6469L157.985 14.6337ZM157.998 10.8059C157.998 11.2283 157.902 11.6023 157.709 11.9278C157.515 12.2534 157.252 12.5174 156.918 12.7198C156.585 12.9222 156.216 13.0234 155.812 13.0234C155.408 13.0234 155.043 12.9266 154.718 12.733C154.385 12.5306 154.121 12.2622 153.928 11.9278C153.726 11.5759 153.625 11.2019 153.625 10.8059C153.625 10.4011 153.722 10.0315 153.915 9.69712C154.126 9.35394 154.393 9.08554 154.718 8.89195C155.043 8.69836 155.408 8.60156 155.812 8.60156C156.216 8.60156 156.585 8.69836 156.918 8.89195C157.243 9.08554 157.507 9.35394 157.709 9.69712C157.902 10.0315 157.998 10.4011 157.998 10.8059Z" fill="white"/>
<circle cx="18.6888" cy="18.6888" r="18.6888" fill="#0098DA"/>
<path d="M23.2457 28.5768C14.3713 32.6071 11.1164 26.7181 10.1122 23.917C9.85251 23.1935 9.72266 22.4318 9.72266 21.6638V15.1836L23.2457 28.5768Z" fill="white"/>
<path d="M24.4684 27.7233C24.4684 27.7233 27.408 25.4701 27.4463 21.958C27.4847 18.4458 27.4463 7.10547 27.4463 7.10547L15.6484 18.865L24.4684 27.7233Z" fill="white"/>
</svg>
