<svg width="840" height="823" viewBox="0 0 840 823" fill="none" xmlns="http://www.w3.org/2000/svg">
<path d="M351.568 126.908C327.689 138.446 275.612 176.071 258.343 234.269L195.286 484.142" stroke="white" stroke-linecap="round"/>
<path d="M351.568 126.908C327.689 138.446 275.612 176.071 258.343 234.269L195.286 484.142" stroke="url(#paint0_linear_4_1579)" stroke-linecap="round"/>
<path d="M361.044 124.545C337.189 134.529 284.473 168.562 264.45 224.82L189.258 467" stroke="white" stroke-linecap="round"/>
<path d="M361.044 124.545C337.189 134.529 284.473 168.562 264.45 224.82L189.258 467" stroke="url(#paint1_linear_4_1579)" stroke-linecap="round"/>
<path d="M369.936 122.474C346.203 130.945 293.083 161.438 270.47 215.636L183.814 449.565" stroke="white" stroke-linecap="round"/>
<path d="M369.936 122.474C346.203 130.945 293.083 161.438 270.47 215.636L183.814 449.565" stroke="url(#paint2_linear_4_1579)" stroke-linecap="round"/>
<path d="M378.237 120.652C354.718 127.659 301.423 154.679 276.389 206.707L178.961 431.883" stroke="white" stroke-linecap="round"/>
<path d="M378.237 120.652C354.718 127.659 301.423 154.679 276.389 206.707L178.961 431.883" stroke="url(#paint3_linear_4_1579)" stroke-linecap="round"/>
<path d="M486.086 104.939C453.619 103.482 310.007 125.062 282.191 198.025L174.704 413.992" stroke="white" stroke-linecap="round"/>
<path d="M486.086 104.939C453.619 103.482 310.007 125.062 282.191 198.025L174.704 413.992" stroke="url(#paint4_linear_4_1579)" stroke-linecap="round"/>
<path d="M488.629 104.053C463.43 107.926 314.979 125.786 287.863 189.577L171.043 395.936" stroke="white" stroke-linecap="round"/>
<path d="M488.629 104.053C463.43 107.926 314.979 125.786 287.863 189.577L171.043 395.936" stroke="url(#paint5_linear_4_1579)" stroke-linecap="round"/>
<path d="M486.019 106.438C462.543 105.384 322.926 127.144 293.39 181.354L167.979 377.756" stroke="white" stroke-linecap="round"/>
<path d="M486.019 106.438C462.543 105.384 322.926 127.144 293.39 181.354L167.979 377.756" stroke="url(#paint6_linear_4_1579)" stroke-linecap="round"/>
<path d="M487.13 103.985C465.293 105.713 331.729 130.831 298.761 173.342L165.506 359.493" stroke="white" stroke-linecap="round"/>
<path d="M487.13 103.985C465.293 105.713 331.729 130.831 298.761 173.342L165.506 359.493" stroke="url(#paint7_linear_4_1579)" stroke-linecap="round"/>
<path d="M489.538 106.095C468.297 106.67 338.469 125.544 303.964 165.528L163.619 341.185" stroke="white" stroke-linecap="round"/>
<path d="M489.538 106.095C468.297 106.67 338.469 125.544 303.964 165.528L163.619 341.185" stroke="url(#paint8_linear_4_1579)" stroke-linecap="round"/>
<path d="M489.718 102.099C469.131 101.596 344.852 120.476 308.988 157.9L162.309 322.871" stroke="white" stroke-linecap="round"/>
<path d="M489.718 102.099C469.131 101.596 344.852 120.476 308.988 157.9L162.309 322.871" stroke="url(#paint9_linear_4_1579)" stroke-linecap="round"/>
<path d="M488.651 103.553C468.771 102.047 350.869 115.601 313.824 150.442L161.563 304.59" stroke="white" stroke-linecap="round"/>
<path d="M488.651 103.553C468.771 102.047 350.869 115.601 313.824 150.442L161.563 304.59" stroke="url(#paint10_linear_4_1579)" stroke-linecap="round"/>
<path d="M156.896 370.955C159.495 397.348 176.863 459.203 225.541 495.474L438.363 640.8" stroke="white" stroke-linecap="round"/>
<path d="M156.896 370.955C159.495 397.348 176.863 459.203 225.541 495.474L438.363 640.8" stroke="url(#paint11_linear_4_1579)" stroke-linecap="round"/>
<path d="M157.944 361.246C159.093 387.081 172.868 448.297 218.776 486.486L420.194 640.55" stroke="white" stroke-linecap="round"/>
<path d="M157.944 361.246C159.093 387.081 172.868 448.297 218.776 486.486L420.194 640.55" stroke="url(#paint12_linear_4_1579)" stroke-linecap="round"/>
<path d="M159.065 352.185C158.836 377.384 169.149 437.759 212.23 477.668L401.951 639.65" stroke="white" stroke-linecap="round"/>
<path d="M159.065 352.185C158.836 377.384 169.149 437.759 212.23 477.668L401.951 639.65" stroke="url(#paint13_linear_4_1579)" stroke-linecap="round"/>
<path d="M160.216 343.764C158.686 368.257 165.679 427.6 205.889 469.034L383.679 638.11" stroke="white" stroke-linecap="round"/>
<path d="M160.216 343.764C158.686 368.257 165.679 427.6 205.889 469.034L383.679 638.11" stroke="url(#paint14_linear_4_1579)" stroke-linecap="round"/>
<path d="M161.356 335.975C158.606 359.696 162.431 417.831 199.739 460.595L365.418 635.94" stroke="white" stroke-linecap="round"/>
<path d="M161.356 335.975C158.606 359.696 162.431 417.831 199.739 460.595L365.418 635.94" stroke="url(#paint15_linear_4_1579)" stroke-linecap="round"/>
<path d="M162.445 328.803C158.557 351.696 159.377 408.459 193.764 452.359L347.207 633.152" stroke="white" stroke-linecap="round"/>
<path d="M162.445 328.803C158.557 351.696 159.377 408.459 193.764 452.359L347.207 633.152" stroke="url(#paint16_linear_4_1579)" stroke-linecap="round"/>
<path d="M163.446 322.233C158.506 344.248 156.489 399.491 187.95 444.335L329.085 629.762" stroke="white" stroke-linecap="round"/>
<path d="M163.446 322.233C158.506 344.248 156.489 399.491 187.95 444.335L329.085 629.762" stroke="url(#paint17_linear_4_1579)" stroke-linecap="round"/>
<path d="M164.322 316.247C158.416 337.342 153.739 390.931 182.28 436.532L311.088 625.787" stroke="white" stroke-linecap="round"/>
<path d="M164.322 316.247C158.416 337.342 153.739 390.931 182.28 436.532L311.088 625.787" stroke="url(#paint18_linear_4_1579)" stroke-linecap="round"/>
<path d="M165.037 310.827C158.254 330.964 151.1 382.781 176.739 428.954L293.252 621.248" stroke="white" stroke-linecap="round"/>
<path d="M165.037 310.827C158.254 330.964 151.1 382.781 176.739 428.954L293.252 621.248" stroke="url(#paint19_linear_4_1579)" stroke-linecap="round"/>
<path d="M165.558 305.949C157.989 325.1 148.543 375.043 171.31 421.609L275.609 616.165" stroke="white" stroke-linecap="round"/>
<path d="M165.558 305.949C157.989 325.1 148.543 375.043 171.31 421.609L275.609 616.165" stroke="url(#paint20_linear_4_1579)" stroke-linecap="round"/>
<path d="M165.855 301.59C157.589 319.733 146.041 367.714 165.976 414.499L258.191 610.564" stroke="white" stroke-linecap="round"/>
<path d="M165.855 301.59C157.589 319.733 146.041 367.714 165.976 414.499L258.191 610.564" stroke="url(#paint21_linear_4_1579)" stroke-linecap="round"/>
<path d="M308.413 638.15C333.903 645.475 397.8 652.162 449.477 620.306L646.544 488.522" stroke="white" stroke-linecap="round"/>
<path d="M308.413 638.15C333.903 645.475 397.8 652.162 449.477 620.306L646.544 488.522" stroke="url(#paint22_linear_4_1579)" stroke-linecap="round"/>
<path d="M299.777 633.592C324.211 642.059 386.19 651.85 438.626 623.276L646.006 500.51" stroke="white" stroke-linecap="round"/>
<path d="M299.777 633.592C324.211 642.059 386.19 651.85 438.626 623.276L646.006 500.51" stroke="url(#paint23_linear_4_1579)" stroke-linecap="round"/>
<path d="M291.769 629.207C315.104 638.719 375.023 651.417 428.015 626.106L648.581 509.56" stroke="white" stroke-linecap="round"/>
<path d="M291.769 629.207C315.104 638.719 375.023 651.417 428.015 626.106L648.581 509.56" stroke="url(#paint24_linear_4_1579)" stroke-linecap="round"/>
<path d="M284.368 625.03C306.567 635.49 364.301 650.892 417.65 628.813L640.406 525.973" stroke="white" stroke-linecap="round"/>
<path d="M284.368 625.03C306.567 635.49 364.301 650.892 417.65 628.813L640.406 525.973" stroke="url(#paint25_linear_4_1579)" stroke-linecap="round"/>
<path d="M277.549 621.095C298.581 632.406 354.023 650.305 407.537 631.414L631.649 542.145" stroke="white" stroke-linecap="round"/>
<path d="M277.549 621.095C298.581 632.406 354.023 650.305 407.537 631.414L631.649 542.145" stroke="url(#paint26_linear_4_1579)" stroke-linecap="round"/>
<path d="M271.285 617.435C291.127 629.499 344.185 649.685 397.677 633.928L622.337 558.041" stroke="white" stroke-linecap="round"/>
<path d="M271.285 617.435C291.127 629.499 344.185 649.685 397.677 633.928L622.337 558.041" stroke="url(#paint27_linear_4_1579)" stroke-linecap="round"/>
<path d="M265.548 614.08C284.186 626.797 334.785 649.059 388.074 636.37L612.498 573.633" stroke="white" stroke-linecap="round"/>
<path d="M265.548 614.08C284.186 626.797 334.785 649.059 388.074 636.37L612.498 573.633" stroke="url(#paint28_linear_4_1579)" stroke-linecap="round"/>
<path d="M260.309 611.058C277.734 624.332 325.814 648.456 378.729 638.76L602.162 588.892" stroke="white" stroke-linecap="round"/>
<path d="M260.309 611.058C277.734 624.332 325.814 648.456 378.729 638.76L602.162 588.892" stroke="url(#paint29_linear_4_1579)" stroke-linecap="round"/>
<path d="M255.534 608.393C271.747 622.128 317.266 647.902 369.642 641.113L591.36 603.794" stroke="white" stroke-linecap="round"/>
<path d="M255.534 608.393C271.747 622.128 317.266 647.902 369.642 641.113L591.36 603.794" stroke="url(#paint30_linear_4_1579)" stroke-linecap="round"/>
<path d="M257.173 610.681C272.178 624.784 309.13 647.422 360.811 643.448L580.126 618.315" stroke="white" stroke-linecap="round"/>
<path d="M257.173 610.681C272.178 624.784 309.13 647.422 360.811 643.448L580.126 618.315" stroke="url(#paint31_linear_4_1579)" stroke-linecap="round"/>
<path d="M258.627 611.748C272.438 626.126 301.395 647.042 352.234 645.781L568.491 632.437" stroke="white" stroke-linecap="round"/>
<path d="M258.627 611.748C272.438 626.126 301.395 647.042 352.234 645.781L568.491 632.437" stroke="url(#paint32_linear_4_1579)" stroke-linecap="round"/>
<path d="M612.024 588.141C628.299 567.2 658.257 510.366 647.892 450.551L593.455 198.66" stroke="white" stroke-linecap="round"/>
<path d="M612.024 588.141C628.299 567.2 658.257 510.366 647.892 450.551L593.455 198.66" stroke="url(#paint33_linear_4_1579)" stroke-linecap="round"/>
<path d="M604.583 594.465C621.525 574.927 653.651 521.028 646.615 461.729L606.467 211.344" stroke="white" stroke-linecap="round"/>
<path d="M604.583 594.465C621.525 574.927 653.651 521.028 646.615 461.729L606.467 211.344" stroke="url(#paint34_linear_4_1579)" stroke-linecap="round"/>
<path d="M597.535 600.269C615.04 582.141 649.099 531.235 645.299 472.632L619.085 224.549" stroke="white" stroke-linecap="round"/>
<path d="M597.535 600.269C615.04 582.141 649.099 531.235 645.299 472.632L619.085 224.549" stroke="url(#paint35_linear_4_1579)" stroke-linecap="round"/>
<path d="M590.906 605.587C608.869 588.867 644.627 540.993 643.959 483.26L631.285 238.238" stroke="white" stroke-linecap="round"/>
<path d="M590.906 605.587C608.869 588.867 644.627 540.993 643.959 483.26L631.285 238.238" stroke="url(#paint36_linear_4_1579)" stroke-linecap="round"/>
<path d="M584.719 610.455C603.037 595.134 640.262 550.317 642.615 493.615L643.043 252.378" stroke="white" stroke-linecap="round"/>
<path d="M584.719 610.455C603.037 595.134 640.262 550.317 642.615 493.615L643.043 252.378" stroke="url(#paint37_linear_4_1579)" stroke-linecap="round"/>
<path d="M578.993 614.909C597.567 600.972 636.029 559.219 641.283 503.703L654.339 266.932" stroke="white" stroke-linecap="round"/>
<path d="M578.993 614.909C597.567 600.972 636.029 559.219 641.283 503.703L654.339 266.932" stroke="url(#paint38_linear_4_1579)" stroke-linecap="round"/>
<path d="M573.746 618.988C592.48 606.413 631.954 567.714 639.982 513.526L665.156 281.862" stroke="white" stroke-linecap="round"/>
<path d="M573.746 618.988C592.48 606.413 631.954 567.714 639.982 513.526L665.156 281.862" stroke="url(#paint39_linear_4_1579)" stroke-linecap="round"/>
<path d="M568.993 622.729C587.793 611.486 628.06 575.817 638.726 523.089L675.48 297.129" stroke="white" stroke-linecap="round"/>
<path d="M568.993 622.729C587.793 611.486 628.06 575.817 638.726 523.089L675.48 297.129" stroke="url(#paint40_linear_4_1579)" stroke-linecap="round"/>
<path d="M564.744 626.171C583.521 616.225 624.368 583.547 637.533 532.4L685.3 312.695" stroke="white" stroke-linecap="round"/>
<path d="M564.744 626.171C583.521 616.225 624.368 583.547 637.533 532.4L685.3 312.695" stroke="url(#paint41_linear_4_1579)" stroke-linecap="round"/>
<path d="M561.009 629.351C579.679 620.663 620.898 590.922 636.418 541.466L694.605 328.523" stroke="white" stroke-linecap="round"/>
<path d="M561.009 629.351C579.679 620.663 620.898 590.922 636.418 541.466L694.605 328.523" stroke="url(#paint42_linear_4_1579)" stroke-linecap="round"/>
<path d="M557.795 632.31C576.276 624.832 617.671 597.962 635.396 550.296L700.045 344.777" stroke="white" stroke-linecap="round"/>
<path d="M557.795 632.31C576.276 624.832 617.671 597.962 635.396 550.296L700.045 344.777" stroke="url(#paint43_linear_4_1579)" stroke-linecap="round"/>
<path d="M679.344 284.131C666.241 261.072 625.233 211.616 566.014 198.26L312.498 151.978" stroke="white" stroke-linecap="round"/>
<path d="M679.344 284.131C666.241 261.072 625.233 211.616 566.014 198.26L312.498 151.978" stroke="url(#paint44_linear_4_1579)" stroke-linecap="round"/>
<path d="M682.332 293.428C670.782 270.29 633.315 219.957 575.848 203.724L329.2 144.823" stroke="white" stroke-linecap="round"/>
<path d="M682.332 293.428C670.782 270.29 633.315 219.957 575.848 203.724L329.2 144.823" stroke="url(#paint45_linear_4_1579)" stroke-linecap="round"/>
<path d="M684.991 302.162C674.958 279.046 640.997 228.074 585.414 209.119L346.234 138.23" stroke="white" stroke-linecap="round"/>
<path d="M684.991 302.162C674.958 279.046 640.997 228.074 585.414 209.119L346.234 138.23" stroke="url(#paint46_linear_4_1579)" stroke-linecap="round"/>
<path d="M687.361 310.323C678.804 287.324 648.295 235.945 594.716 214.431L363.554 132.21" stroke="white" stroke-linecap="round"/>
<path d="M687.361 310.323C678.804 287.324 648.295 235.945 594.716 214.431L363.554 132.21" stroke="url(#paint47_linear_4_1579)" stroke-linecap="round"/>
<path d="M689.485 317.904C682.357 295.112 655.234 243.551 603.766 219.642L381.121 126.771" stroke="white" stroke-linecap="round"/>
<path d="M689.485 317.904C682.357 295.112 655.234 243.551 603.766 219.642L381.121 126.771" stroke="url(#paint48_linear_4_1579)" stroke-linecap="round"/>
<path d="M691.405 324.9C685.653 302.402 661.833 250.873 612.572 224.739L398.894 121.917" stroke="white" stroke-linecap="round"/>
<path d="M691.405 324.9C685.653 302.402 661.833 250.873 612.572 224.739L398.894 121.917" stroke="url(#paint49_linear_4_1579)" stroke-linecap="round"/>
<path d="M693.161 331.31C688.727 309.186 668.117 257.893 621.145 229.706L416.829 117.649" stroke="white" stroke-linecap="round"/>
<path d="M693.161 331.31C688.727 309.186 668.117 257.893 621.145 229.706L416.829 117.649" stroke="url(#paint50_linear_4_1579)" stroke-linecap="round"/>
<path d="M694.794 337.134C691.616 315.46 674.108 264.596 629.497 234.532L434.888 113.966" stroke="white" stroke-linecap="round"/>
<path d="M694.794 337.134C691.616 315.46 674.108 264.596 629.497 234.532L434.888 113.966" stroke="url(#paint51_linear_4_1579)" stroke-linecap="round"/>
<path d="M696.344 342.378C694.356 321.222 679.833 270.97 637.64 239.203L453.029 110.864" stroke="white" stroke-linecap="round"/>
<path d="M696.344 342.378C694.356 321.222 679.833 270.97 637.64 239.203L453.029 110.864" stroke="url(#paint52_linear_4_1579)" stroke-linecap="round"/>
<path d="M697.849 347.046C696.982 326.472 685.314 277.001 645.586 243.708L471.215 108.337" stroke="white" stroke-linecap="round"/>
<path d="M697.849 347.046C696.982 326.472 685.314 277.001 645.586 243.708L471.215 108.337" stroke="url(#paint53_linear_4_1579)" stroke-linecap="round"/>
<path d="M699.35 351.149C699.528 331.213 690.578 282.681 653.349 248.037L489.406 106.376" stroke="white" stroke-linecap="round"/>
<path d="M699.35 351.149C699.528 331.213 690.578 282.681 653.349 248.037L489.406 106.376" stroke="url(#paint54_linear_4_1579)" stroke-linecap="round"/>
<defs>
<linearGradient id="paint0_linear_4_1579" x1="218.288" y1="311.221" x2="330.763" y2="300.324" gradientUnits="userSpaceOnUse">
<stop stop-color="#FF1CF7"/>
<stop offset="0.177083" stop-color="#00F0FF"/>
</linearGradient>
<linearGradient id="paint1_linear_4_1579" x1="221.233" y1="298.223" x2="331.178" y2="293.935" gradientUnits="userSpaceOnUse">
<stop stop-color="#FF1CF7"/>
<stop offset="0.177083" stop-color="#00F0FF"/>
</linearGradient>
<linearGradient id="paint2_linear_4_1579" x1="224.364" y1="285.384" x2="331.4" y2="287.377" gradientUnits="userSpaceOnUse">
<stop stop-color="#FF1CF7"/>
<stop offset="0.177083" stop-color="#00F0FF"/>
</linearGradient>
<linearGradient id="paint3_linear_4_1579" x1="227.666" y1="272.716" x2="331.445" y2="280.64" gradientUnits="userSpaceOnUse">
<stop stop-color="#FF1CF7"/>
<stop offset="0.177083" stop-color="#00F0FF"/>
</linearGradient>
<linearGradient id="paint4_linear_4_1579" x1="253.041" y1="249.416" x2="410.636" y2="270.631" gradientUnits="userSpaceOnUse">
<stop stop-color="#FF1CF7"/>
<stop offset="0.177083" stop-color="#00F0FF"/>
</linearGradient>
<linearGradient id="paint5_linear_4_1579" x1="256.371" y1="236.124" x2="405.996" y2="265.118" gradientUnits="userSpaceOnUse">
<stop stop-color="#FF1CF7"/>
<stop offset="0.177083" stop-color="#00F0FF"/>
</linearGradient>
<linearGradient id="paint6_linear_4_1579" x1="258.666" y1="225.086" x2="397.792" y2="260.463" gradientUnits="userSpaceOnUse">
<stop stop-color="#FF1CF7"/>
<stop offset="0.177083" stop-color="#00F0FF"/>
</linearGradient>
<linearGradient id="paint7_linear_4_1579" x1="262.376" y1="211.866" x2="392.511" y2="253.064" gradientUnits="userSpaceOnUse">
<stop stop-color="#FF1CF7"/>
<stop offset="0.177083" stop-color="#00F0FF"/>
</linearGradient>
<linearGradient id="paint8_linear_4_1579" x1="266.261" y1="201.019" x2="388.971" y2="247.796" gradientUnits="userSpaceOnUse">
<stop stop-color="#FF1CF7"/>
<stop offset="0.177083" stop-color="#00F0FF"/>
</linearGradient>
<linearGradient id="paint9_linear_4_1579" x1="270.418" y1="187.919" x2="383.463" y2="238.645" gradientUnits="userSpaceOnUse">
<stop stop-color="#FF1CF7"/>
<stop offset="0.177083" stop-color="#00F0FF"/>
</linearGradient>
<linearGradient id="paint10_linear_4_1579" x1="273.827" y1="177.799" x2="378.045" y2="231.974" gradientUnits="userSpaceOnUse">
<stop stop-color="#FF1CF7"/>
<stop offset="0.177083" stop-color="#00F0FF"/>
</linearGradient>
<linearGradient id="paint11_linear_4_1579" x1="283.969" y1="559.601" x2="312.512" y2="450.263" gradientUnits="userSpaceOnUse">
<stop stop-color="#FF1CF7"/>
<stop offset="0.177083" stop-color="#00F0FF"/>
</linearGradient>
<linearGradient id="paint12_linear_4_1579" x1="272.783" y1="552.356" x2="306.657" y2="447.672" gradientUnits="userSpaceOnUse">
<stop stop-color="#FF1CF7"/>
<stop offset="0.177083" stop-color="#00F0FF"/>
</linearGradient>
<linearGradient id="paint13_linear_4_1579" x1="261.81" y1="544.991" x2="300.577" y2="445.203" gradientUnits="userSpaceOnUse">
<stop stop-color="#FF1CF7"/>
<stop offset="0.177083" stop-color="#00F0FF"/>
</linearGradient>
<linearGradient id="paint14_linear_4_1579" x1="251.057" y1="537.524" x2="294.269" y2="442.838" gradientUnits="userSpaceOnUse">
<stop stop-color="#FF1CF7"/>
<stop offset="0.177083" stop-color="#00F0FF"/>
</linearGradient>
<linearGradient id="paint15_linear_4_1579" x1="240.526" y1="529.972" x2="287.729" y2="440.56" gradientUnits="userSpaceOnUse">
<stop stop-color="#FF1CF7"/>
<stop offset="0.177083" stop-color="#00F0FF"/>
</linearGradient>
<linearGradient id="paint16_linear_4_1579" x1="230.219" y1="522.352" x2="280.953" y2="438.351" gradientUnits="userSpaceOnUse">
<stop stop-color="#FF1CF7"/>
<stop offset="0.177083" stop-color="#00F0FF"/>
</linearGradient>
<linearGradient id="paint17_linear_4_1579" x1="220.138" y1="514.68" x2="273.942" y2="436.192" gradientUnits="userSpaceOnUse">
<stop stop-color="#FF1CF7"/>
<stop offset="0.177083" stop-color="#00F0FF"/>
</linearGradient>
<linearGradient id="paint18_linear_4_1579" x1="210.282" y1="506.975" x2="266.696" y2="434.066" gradientUnits="userSpaceOnUse">
<stop stop-color="#FF1CF7"/>
<stop offset="0.177083" stop-color="#00F0FF"/>
</linearGradient>
<linearGradient id="paint19_linear_4_1579" x1="200.651" y1="499.253" x2="259.215" y2="431.955" gradientUnits="userSpaceOnUse">
<stop stop-color="#FF1CF7"/>
<stop offset="0.177083" stop-color="#00F0FF"/>
</linearGradient>
<linearGradient id="paint20_linear_4_1579" x1="191.241" y1="491.531" x2="251.504" y2="429.843" gradientUnits="userSpaceOnUse">
<stop stop-color="#FF1CF7"/>
<stop offset="0.177083" stop-color="#00F0FF"/>
</linearGradient>
<linearGradient id="paint21_linear_4_1579" x1="182.049" y1="483.824" x2="243.567" y2="427.712" gradientUnits="userSpaceOnUse">
<stop stop-color="#FF1CF7"/>
<stop offset="0.177083" stop-color="#00F0FF"/>
</linearGradient>
<linearGradient id="paint22_linear_4_1579" x1="520.943" y1="594.838" x2="432.738" y2="530.073" gradientUnits="userSpaceOnUse">
<stop stop-color="#FF1CF7"/>
<stop offset="0.177083" stop-color="#00F0FF"/>
</linearGradient>
<linearGradient id="paint23_linear_4_1579" x1="514.026" y1="600.633" x2="430.604" y2="531.649" gradientUnits="userSpaceOnUse">
<stop stop-color="#FF1CF7"/>
<stop offset="0.177083" stop-color="#00F0FF"/>
</linearGradient>
<linearGradient id="paint24_linear_4_1579" x1="508.883" y1="604.872" x2="430.447" y2="532.014" gradientUnits="userSpaceOnUse">
<stop stop-color="#FF1CF7"/>
<stop offset="0.177083" stop-color="#00F0FF"/>
</linearGradient>
<linearGradient id="paint25_linear_4_1579" x1="497.975" y1="612.111" x2="425.921" y2="537.004" gradientUnits="userSpaceOnUse">
<stop stop-color="#FF1CF7"/>
<stop offset="0.177083" stop-color="#00F0FF"/>
</linearGradient>
<linearGradient id="paint26_linear_4_1579" x1="487.069" y1="619.111" x2="421.39" y2="542.242" gradientUnits="userSpaceOnUse">
<stop stop-color="#FF1CF7"/>
<stop offset="0.177083" stop-color="#00F0FF"/>
</linearGradient>
<linearGradient id="paint27_linear_4_1579" x1="476.183" y1="625.878" x2="416.836" y2="547.724" gradientUnits="userSpaceOnUse">
<stop stop-color="#FF1CF7"/>
<stop offset="0.177083" stop-color="#00F0FF"/>
</linearGradient>
<linearGradient id="paint28_linear_4_1579" x1="465.333" y1="632.416" x2="412.242" y2="553.443" gradientUnits="userSpaceOnUse">
<stop stop-color="#FF1CF7"/>
<stop offset="0.177083" stop-color="#00F0FF"/>
</linearGradient>
<linearGradient id="paint29_linear_4_1579" x1="454.534" y1="638.732" x2="407.592" y2="559.394" gradientUnits="userSpaceOnUse">
<stop stop-color="#FF1CF7"/>
<stop offset="0.177083" stop-color="#00F0FF"/>
</linearGradient>
<linearGradient id="paint30_linear_4_1579" x1="443.803" y1="644.834" x2="402.87" y2="565.567" gradientUnits="userSpaceOnUse">
<stop stop-color="#FF1CF7"/>
<stop offset="0.177083" stop-color="#00F0FF"/>
</linearGradient>
<linearGradient id="paint31_linear_4_1579" x1="435.355" y1="651.256" x2="401.862" y2="576.072" gradientUnits="userSpaceOnUse">
<stop stop-color="#FF1CF7"/>
<stop offset="0.177083" stop-color="#00F0FF"/>
</linearGradient>
<linearGradient id="paint32_linear_4_1579" x1="427.136" y1="657.175" x2="400.015" y2="585.445" gradientUnits="userSpaceOnUse">
<stop stop-color="#FF1CF7"/>
<stop offset="0.177083" stop-color="#00F0FF"/>
</linearGradient>
<linearGradient id="paint33_linear_4_1579" x1="649.618" y1="363.816" x2="553.673" y2="423.516" gradientUnits="userSpaceOnUse">
<stop stop-color="#FF1CF7"/>
<stop offset="0.177083" stop-color="#00F0FF"/>
</linearGradient>
<linearGradient id="paint34_linear_4_1579" x1="652.75" y1="376.77" x2="556.139" y2="429.425" gradientUnits="userSpaceOnUse">
<stop stop-color="#FF1CF7"/>
<stop offset="0.177083" stop-color="#00F0FF"/>
</linearGradient>
<linearGradient id="paint35_linear_4_1579" x1="655.645" y1="389.664" x2="558.852" y2="435.4" gradientUnits="userSpaceOnUse">
<stop stop-color="#FF1CF7"/>
<stop offset="0.177083" stop-color="#00F0FF"/>
</linearGradient>
<linearGradient id="paint36_linear_4_1579" x1="658.31" y1="402.482" x2="561.802" y2="441.456" gradientUnits="userSpaceOnUse">
<stop stop-color="#FF1CF7"/>
<stop offset="0.177083" stop-color="#00F0FF"/>
</linearGradient>
<linearGradient id="paint37_linear_4_1579" x1="660.755" y1="415.208" x2="564.981" y2="447.61" gradientUnits="userSpaceOnUse">
<stop stop-color="#FF1CF7"/>
<stop offset="0.177083" stop-color="#00F0FF"/>
</linearGradient>
<linearGradient id="paint38_linear_4_1579" x1="662.991" y1="427.83" x2="568.377" y2="453.875" gradientUnits="userSpaceOnUse">
<stop stop-color="#FF1CF7"/>
<stop offset="0.177083" stop-color="#00F0FF"/>
</linearGradient>
<linearGradient id="paint39_linear_4_1579" x1="665.028" y1="440.333" x2="571.979" y2="460.266" gradientUnits="userSpaceOnUse">
<stop stop-color="#FF1CF7"/>
<stop offset="0.177083" stop-color="#00F0FF"/>
</linearGradient>
<linearGradient id="paint40_linear_4_1579" x1="666.877" y1="452.705" x2="575.775" y2="466.794" gradientUnits="userSpaceOnUse">
<stop stop-color="#FF1CF7"/>
<stop offset="0.177083" stop-color="#00F0FF"/>
</linearGradient>
<linearGradient id="paint41_linear_4_1579" x1="668.553" y1="464.936" x2="579.75" y2="473.473" gradientUnits="userSpaceOnUse">
<stop stop-color="#FF1CF7"/>
<stop offset="0.177083" stop-color="#00F0FF"/>
</linearGradient>
<linearGradient id="paint42_linear_4_1579" x1="670.067" y1="477.014" x2="583.892" y2="480.311" gradientUnits="userSpaceOnUse">
<stop stop-color="#FF1CF7"/>
<stop offset="0.177083" stop-color="#00F0FF"/>
</linearGradient>
<linearGradient id="paint43_linear_4_1579" x1="668.788" y1="489.014" x2="587.525" y2="487.442" gradientUnits="userSpaceOnUse">
<stop stop-color="#FF1CF7"/>
<stop offset="0.177083" stop-color="#00F0FF"/>
</linearGradient>
<linearGradient id="paint44_linear_4_1579" x1="486.567" y1="163.417" x2="504.927" y2="274.917" gradientUnits="userSpaceOnUse">
<stop stop-color="#FF1CF7"/>
<stop offset="0.177083" stop-color="#00F0FF"/>
</linearGradient>
<linearGradient id="paint45_linear_4_1579" x1="499.732" y1="165.49" x2="511.329" y2="274.905" gradientUnits="userSpaceOnUse">
<stop stop-color="#FF1CF7"/>
<stop offset="0.177083" stop-color="#00F0FF"/>
</linearGradient>
<linearGradient id="paint46_linear_4_1579" x1="512.75" y1="167.759" x2="517.888" y2="274.69" gradientUnits="userSpaceOnUse">
<stop stop-color="#FF1CF7"/>
<stop offset="0.177083" stop-color="#00F0FF"/>
</linearGradient>
<linearGradient id="paint47_linear_4_1579" x1="525.61" y1="170.211" x2="524.612" y2="274.287" gradientUnits="userSpaceOnUse">
<stop stop-color="#FF1CF7"/>
<stop offset="0.177083" stop-color="#00F0FF"/>
</linearGradient>
<linearGradient id="paint48_linear_4_1579" x1="538.302" y1="172.831" x2="531.514" y2="273.71" gradientUnits="userSpaceOnUse">
<stop stop-color="#FF1CF7"/>
<stop offset="0.177083" stop-color="#00F0FF"/>
</linearGradient>
<linearGradient id="paint49_linear_4_1579" x1="550.816" y1="175.604" x2="538.603" y2="272.974" gradientUnits="userSpaceOnUse">
<stop stop-color="#FF1CF7"/>
<stop offset="0.177083" stop-color="#00F0FF"/>
</linearGradient>
<linearGradient id="paint50_linear_4_1579" x1="563.145" y1="178.516" x2="545.886" y2="272.097" gradientUnits="userSpaceOnUse">
<stop stop-color="#FF1CF7"/>
<stop offset="0.177083" stop-color="#00F0FF"/>
</linearGradient>
<linearGradient id="paint51_linear_4_1579" x1="575.281" y1="181.55" x2="553.371" y2="271.094" gradientUnits="userSpaceOnUse">
<stop stop-color="#FF1CF7"/>
<stop offset="0.177083" stop-color="#00F0FF"/>
</linearGradient>
<linearGradient id="paint52_linear_4_1579" x1="587.22" y1="184.691" x2="561.063" y2="269.982" gradientUnits="userSpaceOnUse">
<stop stop-color="#FF1CF7"/>
<stop offset="0.177083" stop-color="#00F0FF"/>
</linearGradient>
<linearGradient id="paint53_linear_4_1579" x1="598.956" y1="187.923" x2="568.967" y2="268.779" gradientUnits="userSpaceOnUse">
<stop stop-color="#FF1CF7"/>
<stop offset="0.177083" stop-color="#00F0FF"/>
</linearGradient>
<linearGradient id="paint54_linear_4_1579" x1="610.487" y1="191.228" x2="577.086" y2="267.5" gradientUnits="userSpaceOnUse">
<stop stop-color="#FF1CF7"/>
<stop offset="0.177083" stop-color="#00F0FF"/>
</linearGradient>
</defs>
</svg>
