<svg width="719" height="720" viewBox="0 0 719 720" fill="none" xmlns="http://www.w3.org/2000/svg">
<path opacity="0.0416667" d="M158.21 337.501C143.855 322.893 149.528 298.321 168.834 291.483L477.784 182.066C498.617 174.688 519.384 193.224 514.413 214.758L435.18 557.953C430.208 579.488 403.417 587.043 387.927 571.279L158.21 337.501Z" stroke="url(#paint0_linear_7_72412)" stroke-width="4"/>
<path opacity="0.0833333" d="M176.362 273.308C167.546 254.822 180.91 233.435 201.39 233.256L529.13 230.384C551.23 230.191 564.832 254.478 553.121 273.22L366.471 571.922C354.759 590.665 326.968 589.086 317.453 569.138L176.362 273.308Z" stroke="url(#paint1_linear_7_72412)" stroke-width="4"/>
<path opacity="0.125" d="M214.426 218.521C212.108 198.172 231.706 182.301 251.129 188.799L561.949 292.786C582.908 299.798 587.862 327.19 570.686 341.099L296.958 562.76C279.782 576.668 254.019 566.128 251.517 544.169L214.426 218.521Z" stroke="url(#paint2_linear_7_72412)" stroke-width="4"/>
<path opacity="0.166667" d="M268.252 179.111C272.686 159.116 296.383 150.491 312.633 162.958L572.664 362.472C590.198 375.926 585.964 403.439 565.196 410.998L234.215 531.465C213.447 539.024 192.518 520.67 197.302 499.093L268.252 179.111Z" stroke="url(#paint3_linear_7_72412)" stroke-width="4"/>
<path opacity="0.208333" d="M331.977 159.373C342.679 141.911 367.893 141.471 379.198 158.549L560.107 431.851C572.305 450.281 559.345 474.916 537.247 475.302L185.078 481.449C162.981 481.834 149.168 457.667 160.716 438.823L331.977 159.373Z" stroke="url(#paint4_linear_7_72412)" stroke-width="4"/>
<path opacity="0.25" d="M398.656 161.457C414.46 148.43 438.444 156.223 443.573 176.051L525.646 493.361C531.181 514.758 510.906 533.832 489.886 527.002L154.903 418.16C133.884 411.33 128.692 383.982 145.746 369.924L398.656 161.457Z" stroke="url(#paint5_linear_7_72412)" stroke-width="4"/>
<path opacity="0.291667" d="M461.023 185.135C480.207 177.963 500.348 193.14 498.742 213.558L473.038 540.301C471.304 562.334 445.924 573.768 428.274 560.467L146.976 348.494C129.326 335.193 133.32 307.645 154.022 299.906L461.023 185.135Z" stroke="url(#paint6_linear_7_72412)" stroke-width="4"/>
<path opacity="0.333333" d="M512.284 227.828C532.758 227.293 546.86 248.2 538.694 266.983L408.013 567.557C399.201 587.825 371.481 590.372 359.122 572.05L162.162 280.044C149.804 261.721 162.55 236.975 184.643 236.397L512.284 227.828Z" stroke="url(#paint7_linear_7_72412)" stroke-width="4"/>
<path opacity="0.375" d="M546.852 284.885C566.385 291.044 572.912 315.403 559.076 330.504L337.657 572.157C322.727 588.452 295.688 581.836 289.967 560.488L198.806 220.267C193.086 198.919 213.194 179.67 234.272 186.317L546.852 284.885Z" stroke="url(#paint8_linear_7_72412)" stroke-width="4"/>
<path opacity="0.416667" d="M560.961 350.088C577.425 362.271 575.666 387.428 557.667 397.201L269.637 553.602C250.215 564.148 226.803 549.089 228.345 527.042L252.914 175.678C254.456 153.631 279.736 141.977 297.502 155.124L560.961 350.088Z" stroke="url(#paint9_linear_7_72412)" stroke-width="4"/>
<path opacity="0.458333" d="M553.074 416.331C564.674 433.211 554.821 456.424 534.621 459.805L211.365 513.912C189.567 517.56 172.333 495.7 180.968 475.356L318.593 151.133C327.228 130.789 354.925 128.001 367.443 146.215L553.074 416.331Z" stroke="url(#paint10_linear_7_72412)" stroke-width="4"/>
<path opacity="0.5" d="M524.05 476.398C529.523 496.134 512.648 514.875 492.448 511.495L169.188 457.412C147.39 453.764 138.212 427.485 153 411.06L388.683 149.308C403.472 132.884 430.567 139.264 436.473 160.562L524.05 476.398Z" stroke="url(#paint11_linear_7_72412)" stroke-width="4"/>
<path opacity="0.541667" d="M477.051 523.742C475.8 544.185 453.744 556.411 435.744 546.639L147.704 390.259C128.281 379.714 128.159 351.878 147.489 341.163L455.55 170.402C474.88 159.687 498.421 174.542 497.072 196.601L477.051 523.742Z" stroke="url(#paint12_linear_7_72412)" stroke-width="4"/>
<path opacity="0.583333" d="M417.199 553.206C409.361 572.128 384.526 576.507 370.688 561.407L149.253 319.77C134.322 303.476 143.269 277.117 165.034 273.278L511.906 212.116C533.671 208.278 551.094 229.988 542.636 250.406L417.199 553.206Z" stroke="url(#paint13_linear_7_72412)" stroke-width="4"/>
<path opacity="0.625" d="M351.016 561.579C337.444 576.918 312.536 572.973 304.369 554.191L173.667 253.626C164.854 233.358 181.895 211.348 203.724 214.805L551.61 269.905C573.439 273.362 582.845 299.561 568.2 316.114L351.016 561.579Z" stroke="url(#paint14_linear_7_72412)" stroke-width="4"/>
<path opacity="0.666667" d="M285.711 547.948C267.885 558.033 245.619 546.194 244.011 525.776L218.284 199.034C216.55 177.001 239.829 161.739 259.343 172.114L570.337 337.472C589.851 347.848 590.215 375.682 570.979 386.565L285.711 547.948Z" stroke="url(#paint15_linear_7_72412)" stroke-width="4"/>
<path opacity="0.708333" d="M228.403 513.799C208.265 517.531 191.066 499.087 196.193 479.259L278.245 161.942C283.778 140.545 310.758 133.693 325.831 149.856L566.046 407.455C581.119 423.619 572.401 450.055 550.67 454.082L228.403 513.799Z" stroke="url(#paint16_linear_7_72412)" stroke-width="4"/>
<path opacity="0.75" d="M185.335 462.853C165.079 459.825 154.822 436.787 166.125 419.707L347.015 146.392C359.213 127.962 386.953 130.267 395.943 150.457L539.205 472.229C548.194 492.419 531.344 514.576 509.486 511.309L185.335 462.853Z" stroke="url(#paint17_linear_7_72412)" stroke-width="4"/>
<path opacity="0.791667" d="M161.199 400.661C143.033 391.203 140.835 366.081 157.083 353.612L417.1 154.08C434.634 140.625 460.113 151.836 462.039 173.852L492.738 524.735C494.663 546.751 471.518 562.216 451.915 552.011L161.199 400.661Z" stroke="url(#paint18_linear_7_72412)" stroke-width="4"/>
<path opacity="0.833333" d="M158.627 333.999C144.529 319.142 150.63 294.673 170.052 288.173L480.865 184.165C501.823 177.152 522.264 196.047 516.918 217.491L431.708 559.251C426.361 580.696 399.442 587.782 384.229 571.751L158.627 333.999Z" stroke="url(#paint19_linear_7_72412)" stroke-width="4"/>
<path opacity="0.875" d="M177.897 270.132C169.404 251.495 183.139 230.345 203.62 230.523L531.36 233.371C553.46 233.564 566.636 258.084 554.6 276.62L362.765 572.019C350.728 590.554 322.968 588.49 313.804 568.379L177.897 270.132Z" stroke="url(#paint20_linear_7_72412)" stroke-width="4"/>
<path opacity="0.916667" d="M216.911 216.018C214.949 195.631 234.821 180.105 254.127 186.941L563.085 296.337C583.918 303.714 588.393 331.188 570.978 344.795L293.423 561.645C276.007 575.251 250.431 564.263 248.313 542.263L216.911 216.018Z" stroke="url(#paint21_linear_7_72412)" stroke-width="4"/>
<path opacity="0.958333" d="M271.417 177.554C276.199 157.639 300.043 149.429 316.072 162.178L572.582 366.2C589.878 379.958 585.165 407.392 564.268 414.588L231.235 529.26C210.338 536.455 189.734 517.739 194.893 496.248L271.417 177.554Z" stroke="url(#paint22_linear_7_72412)" stroke-width="4"/>
<path d="M335.476 158.93C346.481 141.657 371.7 141.657 382.705 158.93L558.816 435.348C570.691 453.988 557.303 478.393 535.202 478.393H182.979C160.878 478.393 147.49 453.988 159.365 435.348L335.476 158.93Z" stroke="url(#paint23_linear_7_72412)" stroke-width="4"/>
<defs>
<linearGradient id="paint0_linear_7_72412" x1="324.598" y1="511.27" x2="395.907" y2="202.395" gradientUnits="userSpaceOnUse">
<stop stop-color="#FF1CF7"/>
<stop offset="1" stop-color="#00F0FF"/>
</linearGradient>
<linearGradient id="paint1_linear_7_72412" x1="277.112" y1="491.78" x2="445.096" y2="222.948" gradientUnits="userSpaceOnUse">
<stop stop-color="#FF1CF7"/>
<stop offset="1" stop-color="#00F0FF"/>
</linearGradient>
<linearGradient id="paint2_linear_7_72412" x1="238.559" y1="457.891" x2="484.914" y2="258.397" gradientUnits="userSpaceOnUse">
<stop stop-color="#FF1CF7"/>
<stop offset="1" stop-color="#00F0FF"/>
</linearGradient>
<linearGradient id="paint3_linear_7_72412" x1="213.139" y1="413.297" x2="511.022" y2="304.877" gradientUnits="userSpaceOnUse">
<stop stop-color="#FF1CF7"/>
<stop offset="1" stop-color="#00F0FF"/>
</linearGradient>
<linearGradient id="paint4_linear_7_72412" x1="203.623" y1="362.857" x2="520.574" y2="357.325" gradientUnits="userSpaceOnUse">
<stop stop-color="#FF1CF7"/>
<stop offset="1" stop-color="#00F0FF"/>
</linearGradient>
<linearGradient id="paint5_linear_7_72412" x1="211.047" y1="312.066" x2="512.531" y2="410.025" gradientUnits="userSpaceOnUse">
<stop stop-color="#FF1CF7"/>
<stop offset="1" stop-color="#00F0FF"/>
</linearGradient>
<linearGradient id="paint6_linear_7_72412" x1="234.602" y1="266.46" x2="487.769" y2="457.235" gradientUnits="userSpaceOnUse">
<stop stop-color="#FF1CF7"/>
<stop offset="1" stop-color="#00F0FF"/>
</linearGradient>
<linearGradient id="paint7_linear_7_72412" x1="271.721" y1="231.007" x2="448.986" y2="493.812" gradientUnits="userSpaceOnUse">
<stop stop-color="#FF1CF7"/>
<stop offset="1" stop-color="#00F0FF"/>
</linearGradient>
<linearGradient id="paint8_linear_7_72412" x1="318.361" y1="209.571" x2="400.406" y2="515.769" gradientUnits="userSpaceOnUse">
<stop stop-color="#FF1CF7"/>
<stop offset="1" stop-color="#00F0FF"/>
</linearGradient>
<linearGradient id="paint9_linear_7_72412" x1="369.439" y1="204.487" x2="347.326" y2="520.715" gradientUnits="userSpaceOnUse">
<stop stop-color="#FF1CF7"/>
<stop offset="1" stop-color="#00F0FF"/>
</linearGradient>
<linearGradient id="paint10_linear_7_72412" x1="419.389" y1="216.31" x2="295.527" y2="508.11" gradientUnits="userSpaceOnUse">
<stop stop-color="#FF1CF7"/>
<stop offset="1" stop-color="#00F0FF"/>
</linearGradient>
<linearGradient id="paint11_linear_7_72412" x1="462.769" y1="243.75" x2="250.654" y2="479.327" gradientUnits="userSpaceOnUse">
<stop stop-color="#FF1CF7"/>
<stop offset="1" stop-color="#00F0FF"/>
</linearGradient>
<linearGradient id="paint12_linear_7_72412" x1="494.851" y1="283.818" x2="217.597" y2="437.503" gradientUnits="userSpaceOnUse">
<stop stop-color="#FF1CF7"/>
<stop offset="1" stop-color="#00F0FF"/>
</linearGradient>
<linearGradient id="paint13_linear_7_72412" x1="512.141" y1="332.148" x2="199.957" y2="387.195" gradientUnits="userSpaceOnUse">
<stop stop-color="#FF1CF7"/>
<stop offset="1" stop-color="#00F0FF"/>
</linearGradient>
<linearGradient id="paint14_linear_7_72412" x1="512.754" y1="383.475" x2="199.657" y2="333.885" gradientUnits="userSpaceOnUse">
<stop stop-color="#FF1CF7"/>
<stop offset="1" stop-color="#00F0FF"/>
</linearGradient>
<linearGradient id="paint15_linear_7_72412" x1="496.623" y1="432.205" x2="216.729" y2="283.382" gradientUnits="userSpaceOnUse">
<stop stop-color="#FF1CF7"/>
<stop offset="1" stop-color="#00F0FF"/>
</linearGradient>
<linearGradient id="paint16_linear_7_72412" x1="465.507" y1="473.028" x2="249.313" y2="241.188" gradientUnits="userSpaceOnUse">
<stop stop-color="#FF1CF7"/>
<stop offset="1" stop-color="#00F0FF"/>
</linearGradient>
<linearGradient id="paint17_linear_7_72412" x1="422.795" y1="501.496" x2="293.859" y2="211.902" gradientUnits="userSpaceOnUse">
<stop stop-color="#FF1CF7"/>
<stop offset="1" stop-color="#00F0FF"/>
</linearGradient>
<linearGradient id="paint18_linear_7_72412" x1="373.141" y1="514.508" x2="345.513" y2="198.714" gradientUnits="userSpaceOnUse">
<stop stop-color="#FF1CF7"/>
<stop offset="1" stop-color="#00F0FF"/>
</linearGradient>
<linearGradient id="paint19_linear_7_72412" x1="321.957" y1="510.645" x2="398.646" y2="203.061" gradientUnits="userSpaceOnUse">
<stop stop-color="#FF1CF7"/>
<stop offset="1" stop-color="#00F0FF"/>
</linearGradient>
<linearGradient id="paint20_linear_7_72412" x1="274.818" y1="490.329" x2="447.469" y2="224.47" gradientUnits="userSpaceOnUse">
<stop stop-color="#FF1CF7"/>
<stop offset="1" stop-color="#00F0FF"/>
</linearGradient>
<linearGradient id="paint21_linear_7_72412" x1="236.862" y1="455.773" x2="486.662" y2="260.608" gradientUnits="userSpaceOnUse">
<stop stop-color="#FF1CF7"/>
<stop offset="1" stop-color="#00F0FF"/>
</linearGradient>
<linearGradient id="paint22_linear_7_72412" x1="212.225" y1="410.742" x2="511.954" y2="307.537" gradientUnits="userSpaceOnUse">
<stop stop-color="#FF1CF7"/>
<stop offset="1" stop-color="#00F0FF"/>
</linearGradient>
<linearGradient id="paint23_linear_7_72412" x1="203.59" y1="360.143" x2="520.59" y2="360.143" gradientUnits="userSpaceOnUse">
<stop stop-color="#FF1CF7"/>
<stop offset="1" stop-color="#00F0FF"/>
</linearGradient>
</defs>
</svg>
